/* XPM */
static char *_f32333817fa4db3857f9c0098b8e3d1zcoJi5KdqDaJXmb2[] = {
/* columns rows colors chars-per-pixel */
"96 80 5 1 ",
"  c None",
". c #674D22",
"X c #835B18",
"o c #9B650B",
"O c #906D33",
/* pixels */
"                                                ................................                ",
"                                                ................................                ",
"                                                ................................                ",
"                                                ................................                ",
"                                                ................................                ",
"                                                ................................                ",
"                                                ................................                ",
"                                                ................................                ",
"                        ........................XXXXXXXXXXXXXXXXXXXXXXXXXXXXXXXX........        ",
"                        ........................XXXXXXXXXXXXXXXXXXXXXXXXXXXXXXXX........        ",
"                        ........................XXXXXXXXXXXXXXXXXXXXXXXXXXXXXXXX........        ",
"                        ........................XXXXXXXXXXXXXXXXXXXXXXXXXXXXXXXX........        ",
"                        ........................XXXXXXXXXXXXXXXXXXXXXXXXXXXXXXXX........        ",
"                        ........................XXXXXXXXXXXXXXXXXXXXXXXXXXXXXXXX........        ",
"                        ........................XXXXXXXXXXXXXXXXXXXXXXXXXXXXXXXX........        ",
"                        ........................XXXXXXXXXXXXXXXXXXXXXXXXXXXXXXXX........        ",
"                ........XXXXXXXXXXXXXXXXXXXXXXXXXXXXXXXXXXXXXXXXXXXXXXXXXXXXXXXXXXXXXXXX........",
"                ........XXXXXXXXXXXXXXXXXXXXXXXXXXXXXXXXXXXXXXXXXXXXXXXXXXXXXXXXXXXXXXXX........",
"                ........XXXXXXXXXXXXXXXXXXXXXXXXXXXXXXXXXXXXXXXXXXXXXXXXXXXXXXXXXXXXXXXX........",
"                ........XXXXXXXXXXXXXXXXXXXXXXXXXXXXXXXXXXXXXXXXXXXXXXXXXXXXXXXXXXXXXXXX........",
"                ........XXXXXXXXXXXXXXXXXXXXXXXXXXXXXXXXXXXXXXXXXXXXXXXXXXXXXXXXXXXXXXXX........",
"                ........XXXXXXXXXXXXXXXXXXXXXXXXXXXXXXXXXXXXXXXXXXXXXXXXXXXXXXXXXXXXXXXX........",
"                ........XXXXXXXXXXXXXXXXXXXXXXXXXXXXXXXXXXXXXXXXXXXXXXXXXXXXXXXXXXXXXXXX........",
"                ........XXXXXXXXXXXXXXXXXXXXXXXXXXXXXXXXXXXXXXXXXXXXXXXXXXXXXXXXXXXXXXXX........",
"        ........XXXXXXXXXXXXXXXXXXXXXXXXXXXXXXXXXXXXXXXXXXXXXXXXXXXXXXXXXXXXXXXXoooooooo........",
"        ........XXXXXXXXXXXXXXXXXXXXXXXXXXXXXXXXXXXXXXXXXXXXXXXXXXXXXXXXXXXXXXXXoooooooo........",
"        ........XXXXXXXXXXXXXXXXXXXXXXXXXXXXXXXXXXXXXXXXXXXXXXXXXXXXXXXXXXXXXXXXoooooooo........",
"        ........XXXXXXXXXXXXXXXXXXXXXXXXXXXXXXXXXXXXXXXXXXXXXXXXXXXXXXXXXXXXXXXXoooooooo........",
"        ........XXXXXXXXXXXXXXXXXXXXXXXXXXXXXXXXXXXXXXXXXXXXXXXXXXXXXXXXXXXXXXXXoooooooo........",
"        ........XXXXXXXXXXXXXXXXXXXXXXXXXXXXXXXXXXXXXXXXXXXXXXXXXXXXXXXXXXXXXXXXoooooooo........",
"        ........XXXXXXXXXXXXXXXXXXXXXXXXXXXXXXXXXXXXXXXXXXXXXXXXXXXXXXXXXXXXXXXXoooooooo........",
"        ........XXXXXXXXXXXXXXXXXXXXXXXXXXXXXXXXXXXXXXXXXXXXXXXXXXXXXXXXXXXXXXXXoooooooo........",
"........XXXXXXXXXXXXXXXXOOOOOOOOOOOOOOOOXXXXXXXXXXXXXXXXXXXXXXXXXXXXXXXXXXXXXXXXoooooooo........",
"........XXXXXXXXXXXXXXXXOOOOOOOOOOOOOOOOXXXXXXXXXXXXXXXXXXXXXXXXXXXXXXXXXXXXXXXXoooooooo........",
"........XXXXXXXXXXXXXXXXOOOOOOOOOOOOOOOOXXXXXXXXXXXXXXXXXXXXXXXXXXXXXXXXXXXXXXXXoooooooo........",
"........XXXXXXXXXXXXXXXXOOOOOOOOOOOOOOOOXXXXXXXXXXXXXXXXXXXXXXXXXXXXXXXXXXXXXXXXoooooooo........",
"........XXXXXXXXXXXXXXXXOOOOOOOOOOOOOOOOXXXXXXXXXXXXXXXXXXXXXXXXXXXXXXXXXXXXXXXXoooooooo........",
"........XXXXXXXXXXXXXXXXOOOOOOOOOOOOOOOOXXXXXXXXXXXXXXXXXXXXXXXXXXXXXXXXXXXXXXXXoooooooo........",
"........XXXXXXXXXXXXXXXXOOOOOOOOOOOOOOOOXXXXXXXXXXXXXXXXXXXXXXXXXXXXXXXXXXXXXXXXoooooooo........",
"........XXXXXXXXXXXXXXXXOOOOOOOOOOOOOOOOXXXXXXXXXXXXXXXXXXXXXXXXXXXXXXXXXXXXXXXXoooooooo........",
"........XXXXXXXXXXXXXXXXOOOOOOOOOOOOOOOOXXXXXXXXXXXXXXXXXXXXXXXXXXXXXXXXoooooooooooooooo........",
"........XXXXXXXXXXXXXXXXOOOOOOOOOOOOOOOOXXXXXXXXXXXXXXXXXXXXXXXXXXXXXXXXoooooooooooooooo........",
"........XXXXXXXXXXXXXXXXOOOOOOOOOOOOOOOOXXXXXXXXXXXXXXXXXXXXXXXXXXXXXXXXoooooooooooooooo........",
"........XXXXXXXXXXXXXXXXOOOOOOOOOOOOOOOOXXXXXXXXXXXXXXXXXXXXXXXXXXXXXXXXoooooooooooooooo........",
"........XXXXXXXXXXXXXXXXOOOOOOOOOOOOOOOOXXXXXXXXXXXXXXXXXXXXXXXXXXXXXXXXoooooooooooooooo........",
"........XXXXXXXXXXXXXXXXOOOOOOOOOOOOOOOOXXXXXXXXXXXXXXXXXXXXXXXXXXXXXXXXoooooooooooooooo........",
"........XXXXXXXXXXXXXXXXOOOOOOOOOOOOOOOOXXXXXXXXXXXXXXXXXXXXXXXXXXXXXXXXoooooooooooooooo........",
"........XXXXXXXXXXXXXXXXOOOOOOOOOOOOOOOOXXXXXXXXXXXXXXXXXXXXXXXXXXXXXXXXoooooooooooooooo........",
"........XXXXXXXXXXXXXXXXXXXXXXXXXXXXXXXXXXXXXXXXXXXXXXXXoooooooooooooooooooooooo........        ",
"........XXXXXXXXXXXXXXXXXXXXXXXXXXXXXXXXXXXXXXXXXXXXXXXXoooooooooooooooooooooooo........        ",
"........XXXXXXXXXXXXXXXXXXXXXXXXXXXXXXXXXXXXXXXXXXXXXXXXoooooooooooooooooooooooo........        ",
"........XXXXXXXXXXXXXXXXXXXXXXXXXXXXXXXXXXXXXXXXXXXXXXXXoooooooooooooooooooooooo........        ",
"........XXXXXXXXXXXXXXXXXXXXXXXXXXXXXXXXXXXXXXXXXXXXXXXXoooooooooooooooooooooooo........        ",
"........XXXXXXXXXXXXXXXXXXXXXXXXXXXXXXXXXXXXXXXXXXXXXXXXoooooooooooooooooooooooo........        ",
"........XXXXXXXXXXXXXXXXXXXXXXXXXXXXXXXXXXXXXXXXXXXXXXXXoooooooooooooooooooooooo........        ",
"........XXXXXXXXXXXXXXXXXXXXXXXXXXXXXXXXXXXXXXXXXXXXXXXXoooooooooooooooooooooooo........        ",
"........XXXXXXXXXXXXXXXXXXXXXXXXXXXXXXXXoooooooooooooooooooooooo................                ",
"........XXXXXXXXXXXXXXXXXXXXXXXXXXXXXXXXoooooooooooooooooooooooo................                ",
"........XXXXXXXXXXXXXXXXXXXXXXXXXXXXXXXXoooooooooooooooooooooooo................                ",
"........XXXXXXXXXXXXXXXXXXXXXXXXXXXXXXXXoooooooooooooooooooooooo................                ",
"........XXXXXXXXXXXXXXXXXXXXXXXXXXXXXXXXoooooooooooooooooooooooo................                ",
"........XXXXXXXXXXXXXXXXXXXXXXXXXXXXXXXXoooooooooooooooooooooooo................                ",
"........XXXXXXXXXXXXXXXXXXXXXXXXXXXXXXXXoooooooooooooooooooooooo................                ",
"........XXXXXXXXXXXXXXXXXXXXXXXXXXXXXXXXoooooooooooooooooooooooo................                ",
"        ........XXXXXXXXoooooooooooooooooooooooo................                                ",
"        ........XXXXXXXXoooooooooooooooooooooooo................                                ",
"        ........XXXXXXXXoooooooooooooooooooooooo................                                ",
"        ........XXXXXXXXoooooooooooooooooooooooo................                                ",
"        ........XXXXXXXXoooooooooooooooooooooooo................                                ",
"        ........XXXXXXXXoooooooooooooooooooooooo................                                ",
"        ........XXXXXXXXoooooooooooooooooooooooo................                                ",
"        ........XXXXXXXXoooooooooooooooooooooooo................                                ",
"                ................................                                                ",
"                ................................                                                ",
"                ................................                                                ",
"                ................................                                                ",
"                ................................                                                ",
"                ................................                                                ",
"                ................................                                                ",
"                ................................                                                "
};
